<svg version="1" xmlns="http://www.w3.org/2000/svg" width="1408" height="1408" viewBox="0 0 1056.000000 1056.000000"><path d="M654.4 2.8c-6.7 4.9-15.9 14.6-28.6 30.2-2.9 3.6-5.8 7.1-6.5 7.8-.7.7-1.3 1.7-1.3 2.1 0 .4-1.8 2.7-4 5.1-2.2 2.5-4 5-4 5.7 0 .6-.4 1.3-.8 1.5-1 .4-26.8 35.8-36.2 49.8-3.6 5.2-6.7 9.7-7 10-.6.6-14 20.2-15.5 22.8-.5.9-1.3 1.9-1.6 2.2-.6.5-10.7 15.6-23.1 34.4-3.6 5.5-7.1 10.6-7.7 11.3-.6.7-1.1 1.4-1.1 1.7 0 .2-5.5 8.6-12.2 18.7-6.6 10.1-16.9 25.6-22.7 34.4-5.8 8.8-10.8 16.4-11.1 17-.3.5-2.7 4.4-5.4 8.5-13.8 21-17.6 27.1-17.6 28 0 .6-.4 1-.8 1s-1.6 1.5-2.7 3.2c-1 1.8-4.6 7.6-8 12.8-3.4 5.2-8.5 13.1-11.3 17.5-2.8 4.4-5.5 8.4-5.9 9-.5.5-2 2.9-3.3 5.2-1.3 2.4-2.7 4.3-3.2 4.3-.4 0-.8.5-.8 1 0 .6-2.8 5.4-6.3 10.8-3.5 5.3-8.2 12.6-10.5 16.2-2.2 3.6-4.6 7-5.1 7.7-.6.7-1.1 1.5-1.1 1.9 0 .3-1 2-2.2 3.7-1.3 1.7-2.7 3.9-3.3 4.9-1.8 3.1-10.7 17.1-20 31.3-5 7.7-10.6 16.5-12.5 19.5-1.9 3-3.7 5.7-4 6-.3.3-1.4 2.1-2.4 4-1.1 1.9-2.2 3.7-2.6 4-.3.3-3.4 5-6.8 10.5-3.5 5.5-10.4 16.3-15.3 24-5 7.7-10.7 16.6-12.7 19.9-2.1 3.2-4.2 6.4-4.8 7-.6.7-1.5 2.2-1.8 3.4-.4 1.2-1.2 2.2-1.7 2.2s-.9.4-.9 1c0 .5-2.8 5.2-6.2 10.4-3.5 5.2-9.7 14.8-13.8 21.3-4.1 6.4-9 13.9-10.7 16.6-1.8 2.7-3.3 5.1-3.3 5.3 0 .2-1.6 2.7-3.5 5.4s-3.5 5.2-3.5 5.5c0 .3-1.6 2.8-3.5 5.5s-3.5 5.2-3.5 5.5c0 .9-4.4 6.9-5.2 7.3-.5.2-.8.7-.8 1.2 0 .7-12.7 21.1-15.2 24.5-2.9 3.9-7.5 11.5-7 11.5.4 0 0 .4-.8 1-.8.5-1.2 1.2-.8 1.5.3.4 60.5.6 133.8.6 125.1 0 133.1.1 132.6 1.7-.2.9-.7 2.7-1.1 3.9-.3 1.2-.8 3.2-1.1 4.5-.6 2.9-.9 3.9-1.7 5.8-.5 1.2-5.4 18.3-7.2 25-.3.8-1.8 6.2-3.5 12s-3.3 11.3-3.5 12.4c-.2 1-1.6 5.5-3 10-1.4 4.4-2.9 9.7-3.5 11.6-1.6 5.9-6.2 21.4-7 23.5-1.6 4.2-3.1 10-2.8 10.6.2.3-.3 1.3-1.1 2.2-.7 1-1 1.7-.6 1.7s.2.7-.5 1.5-1 1.5-.7 1.5c.3 0-.5 3.3-1.9 7.3-1.4 3.9-2.7 7.9-2.9 8.7-.2.8-3.3 10.7-7 22s-9.2 27.9-12.2 37c-3 9.1-5.7 17.2-6 18-.3.8-2.7 7.8-5.4 15.5-4.1 12.2-10.7 31.1-19.6 56-1.3 3.8-2.6 7.7-2.8 8.5-.3.8-2.7 8.2-5.4 16.5-6.3 19.1-8.2 25.4-8.7 28.5-.3 1.4-.7 3.2-1.1 4-.3.8-.7 2-.9 2.7-.1.6-1.2 5.4-2.4 10.7-4.6 20.5-5.7 33.8-3 37.1 1.1 1.3 1.5 1.3 4.1-.1 3.3-1.7 18.1-16.2 27.9-27.4 3.6-4.1 7.6-8.6 9-10.1 1.4-1.5 3.2-3.6 4-4.6 4.1-5 15.2-18.2 17.5-20.7.6-.6 2.8-3.4 4.9-6.1 2.2-2.8 4.4-5.5 5-6 .6-.6 2.7-3 4.6-5.5 1.9-2.5 3.9-5 4.5-5.6.6-.6 2.8-3.4 5-6.2 2.1-2.9 4.3-5.2 4.7-5.2.4 0 .8-.5.8-1 0-.6.8-1.8 1.8-2.9.9-1 2.7-3.1 3.9-4.7 3.6-4.7 12.4-15.7 14.1-17.9 1-1.1 3.3-4 5.2-6.5 1.9-2.5 3.7-4.7 4-5 .3-.3 3.7-4.6 7.5-9.5 3.8-5 7.5-9.7 8.2-10.5 1.7-2 9-11.4 12.8-16.5 3-4.1 5.2-6.9 7-8.9.6-.6 4.4-5.6 8.5-11.1s8-10.5 8.5-11.1c.6-.6 4-5.1 7.8-10 3.7-4.9 10.2-13.5 14.5-19.1 4.2-5.5 8.4-11.1 9.2-12.3.8-1.2 2.2-3 3-4 .8-.9 2.6-3.2 4-5 1.4-1.8 3.1-3.9 3.8-4.7.7-.7 1.1-1.3.8-1.3-.3 0 .1-.8.9-1.8 4.2-5 21.5-27.9 25.5-33.6.8-1.1 7.4-10 14.5-19.6 7.2-9.6 18-24.3 24-32.5 6-8.3 11.8-16.2 13-17.6 1.1-1.4 2.7-3.6 3.5-4.9.8-1.2 2.2-3 3-4 .8-1 2.2-2.8 3-4 2.4-3.5 18.8-26.4 19.7-27.5.4-.6 2.2-3 3.8-5.5 1.7-2.4 3.6-5.1 4.3-6 1.8-2 11.3-15.4 18.2-25.5 3-4.4 5.9-8.5 6.5-9.2 1.5-1.8 2.9-3.7 4-5.5 2.7-4.2 11.9-17.4 12.5-17.8.3-.3 1.7-2.3 3-4.5s2.6-4.2 2.9-4.5c.8-.7 9.3-13.1 21.8-32 5.6-8.5 10.6-16 11.1-16.5.4-.6 2.3-3.5 4.2-6.5 1.9-3 3.7-5.7 4-6 .3-.3 1-1.4 1.7-2.5.6-1.1 4.9-8.1 9.5-15.5s8.8-14.4 9.4-15.5c.6-1.1 4.1-7.3 7.7-13.7 8-14.2 15.8-30.2 16.6-34 .1-.4.9-2.7 1.7-5 2.1-6 2.6-16.3 1-20.2-2.6-6-11.3-12.1-19.1-13.2-1.1-.1-3.5-.5-5.2-.8-1.8-.3-4.8-.8-6.5-1.1-3.5-.5-36.7-.6-45.3-.1-24.4 1.4-29.3 1.8-31.5 2.1-1.4.2-6.5.7-11.5 1-4.9.4-10.6.8-12.5 1-1.9.2-6.6.7-10.5 1-3.8.3-9.5.7-12.5 1-9.6.9-17.2 1.4-27 2.1-5.2.3-11.7.7-14.5.9-27.3 2-75.8 2.1-85.5.2-5.5-1.1-6.3-1.8-5.7-5.6.8-4.9 1.5-7.9 2.1-8.9.3-.5.7-1.9 1-3.3.5-2.3 5.9-20.3 11.3-37.4 1.4-4.4 3.1-10 3.8-12.5.7-2.5 1.8-5.9 2.5-7.5.6-1.7 1.3-3.7 1.5-4.5.2-.8 1.1-3.5 2-6 .9-2.5 1.9-5.6 2.1-6.9.3-1.4.8-2.9 1.2-3.5.3-.6.7-1.6.8-2.1.2-1 5.1-16.6 6.1-19.5.4-.8.7-2.2.9-3 .2-.8.7-2.3 1.3-3.5.5-1.1 2.1-5.8 3.6-10.5s3-9.4 3.5-10.5c.9-2.1 25.5-75.8 33.8-101.5 12.5-38.3 32.3-104.4 33.7-112.5.2-1.1 1.3-5.8 2.5-10.5 5-20 1.1-28-9.6-20.2z"/></svg>